# xmcd
#
# Track frame offsets: 
#        150
#        16530
#        31092
#        78252
#        95910
#        114605
#        127997
#        150867
#
# Disc length: 2168 seconds
#
# Revision: 0
# Processed by: cddbd v1.5.2PL0 Copyright (c) Steve Scherf et al.
# Submitted via: ExactAudioCopyFreeDBPlugin 1.0
#
DISCID=4b087608
DTITLE=benton oscar - bensonhurst blues
DYEAR=1990
DGENRE=blues
TTITLE0=bensonhurst blues
TTITLE1=wooly booly boogie
TTITLE2=draggin'around
TTITLE3=roll on sweet mississippi
TTITLE4=today is yesterday tomorrow
TTITLE5=stop what you're doing
TTITLE6=took me a long time
TTITLE7=come back
EXTD=
EXTT0=
EXTT1=
EXTT2=
EXTT3=
EXTT4=
EXTT5=
EXTT6=
EXTT7=
PLAYORDER=
